<svg width="17" height="17" viewBox="0 0 17 17" fill="none" xmlns="http://www.w3.org/2000/svg">
<g clip-path="url(#clip0_55_94)">
<path d="M15.6035 7.1643C13.6809 7.1643 11.7583 7.1643 9.83569 7.1643C9.83569 5.24168 9.83569 3.31906 9.83569 1.39644C9.83569 -0.323797 7.1845 -0.323797 7.1845 1.39644C7.1845 3.31906 7.1845 5.24168 7.1845 7.1643C5.26188 7.1643 3.33926 7.1643 1.41664 7.1643C-0.303595 7.1643 -0.303595 9.81549 1.41664 9.81549C3.33926 9.81549 5.26188 9.81549 7.1845 9.81549C7.1845 11.7381 7.1845 13.6607 7.1845 15.5833C7.1845 17.3036 9.83569 17.3036 9.83569 15.5833C9.83569 13.6607 9.83569 11.7381 9.83569 9.81549C11.7583 9.81549 13.6809 9.81549 15.6035 9.81549C17.3035 9.83573 17.3035 7.1643 15.6035 7.1643Z" fill="#1F1F25"/>
</g>
<defs>
<clipPath id="clip0_55_94">
<rect width="17" height="17" fill="white"/>
</clipPath>
</defs>
</svg>
