<svg xmlns="http://www.w3.org/2000/svg" viewBox="0 0 524 109.34"><defs><style>.a,.b,.c{fill:#d2d2d9;fill-rule:evenodd;}.b{fill-opacity:0.5;}.c{fill-opacity:0.15;}</style></defs><path class="a" d="M530,92.72V146H6V98.44l8.16.42c15.2.78,44.69,2.29,74.73,1.86s59.73-2.86,89.37,4.58,58.32,24.7,88.57,20.33S328,95.21,358.22,90.84s58.92,12.89,88.76,16.4,59.94-6.8,75.44-11.93Z" transform="translate(-6 -36.66)"/><path class="b" d="M530,75.54V146H6V88.7l8.66.45c15.19.78,44.69,2.29,74.75,1.38s59.81-4.29,89.37,4.58,58.06,29.94,88.37,24.14S328.72,80.74,359,74.94s58.81,15.27,88.62,19.25S507.71,85,523.28,78.46Z" transform="translate(-6 -36.66)"/><path class="c" d="M450.89,64.59c-31.94-5.2-62.13-35.27-94.81-26.25s-66.87,57.18-99.55,66.2-62.86-21.05-94.44-33.36-63.59-6.83-95.9-4.92c-21.89,1.29-43.47,1-60.19.36V146H530V41.67C512.56,51.85,481.37,69.55,450.89,64.59Z" transform="translate(-6 -36.66)"/></svg>