<svg width="19" height="16" viewBox="0 0 19 16" fill="none" xmlns="http://www.w3.org/2000/svg">
<g clip-path="url(#clip0_31_27)">
<path d="M12.7179 9.4359C11.9808 9.4359 11.4872 10.0577 11.4872 11.0769C11.4872 12.0962 11.8526 13.1474 12.7179 13.1282C13.6282 13.1074 13.9567 12.2163 13.9487 11.0769C13.9423 10.0577 13.4535 9.4359 12.7179 9.4359ZM17.3381 4.54006C17.4503 3.98878 17.4984 2.03686 16.6891 0C16.6891 0 14.8301 0.203526 12.0192 2.13301C11.4311 1.96955 10.4327 1.88782 9.4359 1.88782C8.4391 1.88782 7.44231 1.96955 6.85096 2.13141C4.04167 0.203526 2.18429 0 2.18429 0C1.3734 2.03686 1.41346 3.94231 1.53365 4.54006C0.581731 5.57372 0 6.8141 0 8.50962C0 15.8798 6.11538 15.9984 7.65865 15.9984C8.00801 15.9984 8.70192 15.9984 9.4359 16C10.1699 15.9984 10.8654 15.9984 11.2131 15.9984C12.7564 15.9984 18.8718 15.8798 18.8718 8.50962C18.8718 6.8141 18.2901 5.57372 17.3381 4.54006ZM9.49359 15.1795H9.4359C5.56731 15.1795 2.52564 14.6298 2.52564 10.8702C2.52564 9.96955 2.84455 9.13461 3.59936 8.44071C4.85897 7.28365 6.98878 7.89583 9.40705 7.89583C9.41667 7.89583 9.45673 7.89583 9.46474 7.89583C11.883 7.89583 14.0144 7.28526 15.274 8.44071C16.0288 9.13461 16.3462 9.96955 16.3462 10.8702C16.3462 14.6298 13.3622 15.1795 9.49359 15.1795ZM6.15385 9.4359C5.41827 9.4359 4.92308 10.2628 4.92308 11.2821C4.92308 12.3013 5.41827 13.1282 6.15385 13.1282C6.89103 13.1282 7.38461 12.3013 7.38461 11.2821C7.38461 10.2628 6.89103 9.4359 6.15385 9.4359Z" fill="#676778"/>
</g>
<defs>
<clipPath id="clip0_31_27">
<rect width="18.8718" height="16" fill="white"/>
</clipPath>
</defs>
</svg>
