<svg width="34" height="34" viewBox="0 0 34 34" fill="none" xmlns="http://www.w3.org/2000/svg">
<g clip-path="url(#clip0_48_96)">
<path d="M14.582 33.6748V19.1947C14.582 18.9407 14.7877 18.7352 15.0415 18.7352H18.9585C19.2123 18.7352 19.418 18.9407 19.418 19.1947V33.6822C27.6346 32.4982 33.7703 25.4573 33.7703 17.0921C33.7703 7.8428 26.2489 0.31781 17.0038 0.31781C7.75451 0.31781 0.229736 7.8428 0.229736 17.0921C0.229736 25.4529 6.36463 32.4903 14.582 33.6748ZM17 7.70551C18.9352 7.70551 20.5094 9.27996 20.5094 11.2152C20.5094 13.1504 18.9352 14.7244 17 14.7244C15.0648 14.7244 13.4906 13.1504 13.4906 11.2152C13.4906 9.27996 15.0648 7.70551 17 7.70551Z" fill="#A0A0A0"/>
</g>
<defs>
<clipPath id="clip0_48_96">
<rect width="34" height="34" fill="white"/>
</clipPath>
</defs>
</svg>
