<svg width="29" height="24" viewBox="0 0 29 24" fill="none" xmlns="http://www.w3.org/2000/svg">
<g clip-path="url(#clip0_31_25)">
<path d="M10.5313 0C7.76689 1.04727 7.44057 3.61197 6.76421 4.13778C6.08785 4.6636 2.8771 3.89327 1.45455 5.50781C2.47891 9.51254 8.09058 9.04935 8.49858 9.80753C8.81059 10.389 7.71804 14.5783 8.97586 18.7969C9.83768 18.4587 10.8111 18.4739 11.6456 18.8906C12.0612 19.0924 13.4218 19.6364 14.5455 19.6364C15.6691 19.6364 17.0304 19.0937 17.4602 18.8842C18.3777 18.4381 19.462 18.4346 20.3729 18.8906C20.7885 19.0924 22.1491 19.6364 23.2727 19.6364C23.6873 19.6364 24.1333 19.5632 24.5533 19.4595C21.2107 10.5337 11.7165 8.77147 11.2386 8.15838C10.7117 7.48311 13.0774 3.57491 10.5313 0ZM21.6364 4.36364C20.7331 4.36364 20 5.09673 20 6C20 6.90327 21.6364 9.81818 21.6364 9.81818C21.6364 9.81818 23.2727 6.90327 23.2727 6C23.2727 5.09673 22.5396 4.36364 21.6364 4.36364ZM25.9318 9.82031C25.2948 9.84741 24.7053 10.2465 24.468 10.8814C24.1517 11.7279 24.6641 15.032 24.6641 15.032C24.6641 15.032 27.2156 12.8742 27.532 12.0277C27.8483 11.1812 27.4197 10.2389 26.5732 9.92259C26.3615 9.84349 26.1442 9.81128 25.9318 9.82031ZM3.09091 13.0909C2.67214 13.0909 2.25305 13.2507 1.93395 13.5703C1.29468 14.2096 1.29468 15.2461 1.93395 15.8842C2.57323 16.5235 5.79262 17.4268 5.79262 17.4268C5.79262 17.4268 4.88606 14.2096 4.24787 13.5703C3.92824 13.2507 3.50969 13.0909 3.09091 13.0909ZM1.4162 20.7209C1.17135 20.7265 0.935504 20.8143 0.746624 20.9702C0.557745 21.1261 0.426816 21.341 0.374912 21.5804C0.323007 21.8197 0.353146 22.0696 0.460477 22.2897C0.567809 22.5099 0.746089 22.6875 0.966625 22.794C0.966625 22.794 3.27273 24 5.81819 24C7.94172 24 9.59143 23.2726 10.1818 22.9943C10.7722 23.2726 12.4219 24 14.5455 24C16.669 24 18.3187 23.2726 18.9091 22.9943C19.4995 23.2726 21.1492 24 23.2727 24C25.8182 24 28.1243 22.794 28.1243 22.794C28.2525 22.73 28.3668 22.6413 28.4607 22.5331C28.5546 22.4248 28.6262 22.2991 28.6716 22.1632C28.7169 22.0273 28.735 21.8837 28.7248 21.7408C28.7147 21.5979 28.6765 21.4583 28.6124 21.3302C28.5483 21.202 28.4596 21.0877 28.3513 20.9938C28.2431 20.9 28.1174 20.8283 27.9815 20.783C27.8455 20.7377 27.702 20.7196 27.5591 20.7298C27.4161 20.74 27.2766 20.7782 27.1484 20.8423C27.1484 20.8423 25.0909 21.8182 23.2727 21.8182C21.4546 21.8182 19.397 20.8423 19.397 20.8423C19.2455 20.7666 19.0785 20.7271 18.9091 20.7271C18.7397 20.7271 18.5727 20.7666 18.4212 20.8423C18.4212 20.8423 16.3636 21.8182 14.5455 21.8182C12.7273 21.8182 10.6698 20.8423 10.6698 20.8423C10.5183 20.7666 10.3512 20.7271 10.1818 20.7271C10.0124 20.7271 9.84539 20.7666 9.6939 20.8423C9.6939 20.8423 7.63637 21.8182 5.81819 21.8182C4.00001 21.8182 1.94248 20.8423 1.94248 20.8423C1.78 20.7584 1.59903 20.7166 1.4162 20.7209Z" fill="#CBF147"/>
</g>
<defs>
<clipPath id="clip0_31_25">
<rect width="28.7276" height="24" fill="white"/>
</clipPath>
</defs>
</svg>
